<svg width="64" height="64" viewBox="0 0 64 64" fill="none" xmlns="http://www.w3.org/2000/svg">
  <!-- Zero-Knowledge Privacy - Shield with lock and key symbols -->
  <defs>
    <linearGradient id="zkGradient" x1="8" y1="8" x2="56" y2="56" gradientUnits="userSpaceOnUse">
      <stop offset="0%" stop-color="#06b6d4"/>
      <stop offset="100%" stop-color="#0891b2"/>
    </linearGradient>
  </defs>

  <!-- Shield outline -->
  <path d="M32 8L12 16V28C12 40 18 50 32 56C46 50 52 40 52 28V16L32 8Z"
        stroke="url(#zkGradient)" stroke-width="2.5" fill="url(#zkGradient)" fill-opacity="0.1"/>

  <!-- Lock symbol in center -->
  <rect x="26" y="28" width="12" height="14" rx="2"
        stroke="url(#zkGradient)" stroke-width="2" fill="url(#zkGradient)" fill-opacity="0.2"/>

  <!-- Lock shackle -->
  <path d="M28 28V24C28 21.79 29.79 20 32 20C34.21 20 36 21.79 36 24V28"
        stroke="url(#zkGradient)" stroke-width="2" stroke-linecap="round"/>

  <!-- Keyhole -->
  <circle cx="32" cy="34" r="1.5" fill="url(#zkGradient)"/>
  <line x1="32" y1="35.5" x2="32" y2="38" stroke="url(#zkGradient)" stroke-width="1.5" stroke-linecap="round"/>

  <!-- ZK proof particles around shield -->
  <circle cx="18" cy="22" r="1.5" fill="url(#zkGradient)" opacity="0.6"/>
  <circle cx="46" cy="22" r="1.5" fill="url(#zkGradient)" opacity="0.6"/>
  <circle cx="22" cy="36" r="1.5" fill="url(#zkGradient)" opacity="0.6"/>
  <circle cx="42" cy="36" r="1.5" fill="url(#zkGradient)" opacity="0.6"/>
</svg>
